<svg width="600" height="600" viewBox="0 0 600 600" fill="none" xmlns="http://www.w3.org/2000/svg">
<rect width="600" height="600" fill="#FDFDFD"/>
<path d="M555.523 266.927V266.927C537.221 248.2 507.146 248.031 488.635 266.552L272.469 482.83C250.959 504.351 215.983 504.053 194.843 482.169V482.169C174.212 460.811 174.513 426.857 195.519 405.868L407.619 193.944C428.738 172.843 428.782 138.625 407.716 117.469V117.469C386.579 96.2424 352.221 96.2219 331.058 117.424L115.052 333.834C96.158 352.763 65.5004 352.806 46.5535 333.929L45.2442 332.625C27.3184 314.765 26.9347 285.86 44.3802 267.531V267.531C62.442 248.554 92.5973 248.206 111.092 266.761L326.365 482.728C347.897 504.329 382.937 504.144 404.24 482.316V482.316C425.141 460.9 424.948 426.662 403.808 405.482L192.965 194.243C171.746 172.984 171.769 138.551 193.017 117.32V117.32C214.221 96.1348 248.565 96.0886 269.825 117.217L487.523 333.569C506.55 352.478 537.636 351.728 555.994 332.169V332.169C573.227 313.809 573.122 284.936 555.523 266.927Z" stroke="black" stroke-width="45"/>
</svg>
